<svg width="1280" height="640" viewBox="0 0 1280 640" fill="none" xmlns="http://www.w3.org/2000/svg">
  <defs>
    <linearGradient id="bannerBg" x1="0%" y1="0%" x2="100%" y2="100%">
      <stop offset="0%" style="stop-color:#0f0f1a"/>
      <stop offset="50%" style="stop-color:#1a1a2e"/>
      <stop offset="100%" style="stop-color:#16213e"/>
    </linearGradient>
    <linearGradient id="primaryGrad" x1="0%" y1="0%" x2="100%" y2="100%">
      <stop offset="0%" style="stop-color:#6366f1"/>
      <stop offset="100%" style="stop-color:#8b5cf6"/>
    </linearGradient>
    <linearGradient id="successGrad" x1="0%" y1="0%" x2="100%" y2="100%">
      <stop offset="0%" style="stop-color:#22c55e"/>
      <stop offset="100%" style="stop-color:#10b981"/>
    </linearGradient>
    <filter id="bannerGlow" x="-50%" y="-50%" width="200%" height="200%">
      <feGaussianBlur stdDeviation="20" result="blur"/>
      <feMerge>
        <feMergeNode in="blur"/>
        <feMergeNode in="SourceGraphic"/>
      </feMerge>
    </filter>
    <filter id="softGlow">
      <feGaussianBlur stdDeviation="8"/>
    </filter>
  </defs>
  
  <!-- Background -->
  <rect width="1280" height="640" fill="url(#bannerBg)"/>
  
  <!-- Animated grid -->
  <g opacity="0.08">
    <path d="M0 0 L1280 0 L1280 640 L0 640 Z" stroke="white" stroke-width="0.5" fill="none"/>
    <g stroke="white" stroke-width="0.3">
      <line x1="160" y1="0" x2="160" y2="640"/>
      <line x1="320" y1="0" x2="320" y2="640"/>
      <line x1="480" y1="0" x2="480" y2="640"/>
      <line x1="640" y1="0" x2="640" y2="640"/>
      <line x1="800" y1="0" x2="800" y2="640"/>
      <line x1="960" y1="0" x2="960" y2="640"/>
      <line x1="1120" y1="0" x2="1120" y2="640"/>
      <line x1="0" y1="80" x2="1280" y2="80"/>
      <line x1="0" y1="160" x2="1280" y2="160"/>
      <line x1="0" y1="240" x2="1280" y2="240"/>
      <line x1="0" y1="320" x2="1280" y2="320"/>
      <line x1="0" y1="400" x2="1280" y2="400"/>
      <line x1="0" y1="480" x2="1280" y2="480"/>
      <line x1="0" y1="560" x2="1280" y2="560"/>
    </g>
  </g>
  
  <!-- Glow effects -->
  <ellipse cx="640" cy="320" rx="400" ry="250" fill="#6366f1" opacity="0.08" filter="url(#softGlow)"/>
  <ellipse cx="300" cy="200" rx="200" ry="150" fill="#8b5cf6" opacity="0.06" filter="url(#softGlow)"/>
  <ellipse cx="1000" cy="450" rx="250" ry="180" fill="#22c55e" opacity="0.04" filter="url(#softGlow)"/>
  
  <!-- Left side: Code window mockup -->
  <g transform="translate(80, 150)">
    <!-- Window frame -->
    <rect width="420" height="340" rx="12" fill="#1e1e2e" stroke="#2a2a3e" stroke-width="2"/>
    
    <!-- Title bar -->
    <rect width="420" height="36" rx="12" fill="#252536"/>
    <rect y="24" width="420" height="12" fill="#252536"/>
    
    <!-- Traffic lights -->
    <circle cx="20" cy="18" r="6" fill="#ff5f57"/>
    <circle cx="40" cy="18" r="6" fill="#febc2e"/>
    <circle cx="60" cy="18" r="6" fill="#28c840"/>
    
    <!-- File name -->
    <text x="210" y="23" text-anchor="middle" fill="#888" font-family="monospace" font-size="12">api/users.ts</text>
    
    <!-- Code lines -->
    <g transform="translate(16, 52)" font-family="monospace" font-size="13">
      <!-- Line numbers -->
      <text x="0" y="0" fill="#4a4a5a">1</text>
      <text x="0" y="22" fill="#4a4a5a">2</text>
      <text x="0" y="44" fill="#4a4a5a">3</text>
      <text x="0" y="66" fill="#4a4a5a">4</text>
      <text x="0" y="88" fill="#4a4a5a">5</text>
      <text x="0" y="110" fill="#4a4a5a">6</text>
      <text x="0" y="132" fill="#4a4a5a">7</text>
      <text x="0" y="154" fill="#4a4a5a">8</text>
      <text x="0" y="176" fill="#4a4a5a">9</text>
      <text x="0" y="198" fill="#4a4a5a">10</text>
      <text x="0" y="220" fill="#4a4a5a">11</text>
      <text x="0" y="242" fill="#4a4a5a">12</text>
      
      <!-- Code content -->
      <text x="30" y="0" fill="#c678dd">export async</text><text x="145" y="0" fill="#61afef"> function</text><text x="215" y="0" fill="#e5c07b"> getUser</text><text x="278" y="0" fill="#abb2bf">(id) {</text>
      
      <!-- Highlighted dangerous line -->
      <rect x="25" y="8" width="360" height="20" fill="#ef4444" opacity="0.15" rx="2"/>
      <text x="30" y="22" fill="#abb2bf">  </text><text x="45" y="22" fill="#c678dd">const</text><text x="85" y="22" fill="#e5c07b"> query</text><text x="125" y="22" fill="#abb2bf"> = </text><text x="142" y="22" fill="#98c379">`SELECT * FROM users WHERE id=${id}`</text>
      <circle cx="390" cy="15" r="8" fill="#ef4444"/>
      <text x="390" y="19" text-anchor="middle" fill="white" font-size="10" font-weight="bold">!</text>
      
      <text x="30" y="44" fill="#abb2bf">  </text><text x="45" y="44" fill="#c678dd">return</text><text x="95" y="44" fill="#61afef"> db</text><text x="115" y="44" fill="#abb2bf">.</text><text x="120" y="44" fill="#61afef">execute</text><text x="175" y="44" fill="#abb2bf">(query)</text>
      <text x="30" y="66" fill="#abb2bf">}</text>
      <text x="30" y="88" fill="#abb2bf"></text>
      
      <!-- Safe code section -->
      <text x="30" y="110" fill="#7f848e">// ✓ Fixed by VibeCheck</text>
      <rect x="25" y="118" width="360" height="20" fill="#22c55e" opacity="0.1" rx="2"/>
      <text x="30" y="132" fill="#c678dd">export async</text><text x="145" y="132" fill="#61afef"> function</text><text x="215" y="132" fill="#e5c07b"> getUser</text><text x="278" y="132" fill="#abb2bf">(id) {</text>
      <circle cx="390" cy="125" r="8" fill="#22c55e"/>
      <text x="390" y="129" text-anchor="middle" fill="white" font-size="10">✓</text>
      
      <rect x="25" y="140" width="360" height="20" fill="#22c55e" opacity="0.1" rx="2"/>
      <text x="30" y="154" fill="#abb2bf">  </text><text x="45" y="154" fill="#c678dd">const</text><text x="85" y="154" fill="#e5c07b"> result</text><text x="130" y="154" fill="#abb2bf"> = </text><text x="147" y="154" fill="#c678dd">await</text><text x="185" y="154" fill="#61afef"> db</text>
      <text x="30" y="176" fill="#abb2bf">    .</text><text x="45" y="176" fill="#61afef">select</text><text x="90" y="176" fill="#abb2bf">()</text>
      <text x="30" y="198" fill="#abb2bf">    .</text><text x="45" y="198" fill="#61afef">from</text><text x="80" y="198" fill="#abb2bf">(</text><text x="85" y="198" fill="#e5c07b">users</text><text x="115" y="198" fill="#abb2bf">)</text>
      <text x="30" y="220" fill="#abb2bf">    .</text><text x="45" y="220" fill="#61afef">where</text><text x="85" y="220" fill="#abb2bf">(</text><text x="90" y="220" fill="#61afef">eq</text><text x="105" y="220" fill="#abb2bf">(</text><text x="110" y="220" fill="#e5c07b">users.id</text><text x="165" y="220" fill="#abb2bf">,</text><text x="172" y="220" fill="#e5c07b"> id</text><text x="188" y="220" fill="#abb2bf">))</text>
      <text x="30" y="242" fill="#abb2bf">  </text><text x="45" y="242" fill="#c678dd">return</text><text x="95" y="242" fill="#e5c07b"> result</text>
    </g>
  </g>
  
  <!-- Center: Logo and tagline -->
  <g transform="translate(640, 320)">
    <!-- Shield with glow -->
    <g filter="url(#bannerGlow)">
      <path transform="translate(-60, -170)" d="M60 0L0 26V78C0 120.25 25.65 158.92 60 172C94.35 158.92 120 120.25 120 78V26L60 0Z" 
            fill="url(#primaryGrad)"/>
      <path transform="translate(-60, -170)" d="M48 86L34 72L41 65L48 72L79 41L86 48L48 86Z" fill="white"/>
    </g>
    
    <!-- Product name -->
    <text x="0" y="50" text-anchor="middle" fill="white" font-family="system-ui, -apple-system, sans-serif" font-size="56" font-weight="800" letter-spacing="-1">
      VibeCheck
    </text>
    
    <!-- Tagline -->
    <text x="0" y="100" text-anchor="middle" fill="#a1a1aa" font-family="system-ui, -apple-system, sans-serif" font-size="22" font-weight="500">
      Catch Fake Features Before They Ship
    </text>
    
    <!-- Subtitle -->
    <text x="0" y="135" text-anchor="middle" fill="#6366f1" font-family="system-ui, -apple-system, sans-serif" font-size="16" font-weight="600">
      AI-Generated Code Security Scanner
    </text>
  </g>
  
  <!-- Right side: Feature badges -->
  <g transform="translate(900, 200)">
    <!-- Badge 1 -->
    <g transform="translate(0, 0)">
      <rect width="260" height="60" rx="12" fill="#1e1e2e" stroke="#2a2a3e" stroke-width="1"/>
      <rect x="12" y="12" width="36" height="36" rx="8" fill="url(#primaryGrad)" opacity="0.2"/>
      <text x="30" y="35" text-anchor="middle" fill="#6366f1" font-size="18">🔍</text>
      <text x="60" y="30" fill="white" font-family="system-ui" font-size="14" font-weight="600">Fake Feature Detection</text>
      <text x="60" y="46" fill="#71717a" font-family="system-ui" font-size="11">Code that looks right but doesn't work</text>
    </g>
    
    <!-- Badge 2 -->
    <g transform="translate(0, 75)">
      <rect width="260" height="60" rx="12" fill="#1e1e2e" stroke="#2a2a3e" stroke-width="1"/>
      <rect x="12" y="12" width="36" height="36" rx="8" fill="#22c55e" opacity="0.2"/>
      <text x="30" y="35" text-anchor="middle" fill="#22c55e" font-size="18">🎭</text>
      <text x="60" y="30" fill="white" font-family="system-ui" font-size="14" font-weight="600">Reality Mode</text>
      <text x="60" y="46" fill="#71717a" font-family="system-ui" font-size="11">Browser-based validation testing</text>
    </g>
    
    <!-- Badge 3 -->
    <g transform="translate(0, 150)">
      <rect width="260" height="60" rx="12" fill="#1e1e2e" stroke="#2a2a3e" stroke-width="1"/>
      <rect x="12" y="12" width="36" height="36" rx="8" fill="#f59e0b" opacity="0.2"/>
      <text x="30" y="35" text-anchor="middle" fill="#f59e0b" font-size="18">🔥</text>
      <text x="60" y="30" fill="white" font-family="system-ui" font-size="14" font-weight="600">Security Heatmap</text>
      <text x="60" y="46" fill="#71717a" font-family="system-ui" font-size="11">Visual risk overlay in your editor</text>
    </g>
    
    <!-- Badge 4 -->
    <g transform="translate(0, 225)">
      <rect width="260" height="60" rx="12" fill="#1e1e2e" stroke="#2a2a3e" stroke-width="1"/>
      <rect x="12" y="12" width="36" height="36" rx="8" fill="#8b5cf6" opacity="0.2"/>
      <text x="30" y="35" text-anchor="middle" fill="#8b5cf6" font-size="18">🔧</text>
      <text x="60" y="30" fill="white" font-family="system-ui" font-size="14" font-weight="600">One-Click Auto-Fix</text>
      <text x="60" y="46" fill="#71717a" font-family="system-ui" font-size="11">AI-powered secure code fixes</text>
    </g>
  </g>
  
  <!-- Bottom bar -->
  <rect y="600" width="1280" height="40" fill="#0a0a0f"/>
  <text x="640" y="625" text-anchor="middle" fill="#52525b" font-family="system-ui" font-size="12">
    Built for developers using Cursor, Copilot, Claude, and other AI coding tools
  </text>
</svg>
