<svg xmlns="http://www.w3.org/2000/svg" viewBox="0 0 800 500">
  <defs>
    <linearGradient id="bgGrad3" x1="0%" y1="0%" x2="100%" y2="100%">
      <stop offset="0%" style="stop-color:#0f0f23"/>
      <stop offset="100%" style="stop-color:#1a1a3e"/>
    </linearGradient>
    <linearGradient id="aiGrad" x1="0%" y1="0%" x2="100%" y2="100%">
      <stop offset="0%" style="stop-color:#8b5cf6"/>
      <stop offset="100%" style="stop-color:#06b6d4"/>
    </linearGradient>
    <filter id="aiGlow">
      <feGaussianBlur stdDeviation="3" result="coloredBlur"/>
      <feMerge>
        <feMergeNode in="coloredBlur"/>
        <feMergeNode in="SourceGraphic"/>
      </feMerge>
    </filter>
  </defs>
  
  <!-- Background -->
  <rect width="800" height="500" fill="url(#bgGrad3)"/>
  
  <!-- Grid pattern -->
  <pattern id="grid3" width="40" height="40" patternUnits="userSpaceOnUse">
    <path d="M 40 0 L 0 0 0 40" fill="none" stroke="rgba(255,255,255,0.03)" stroke-width="1"/>
  </pattern>
  <rect width="800" height="500" fill="url(#grid3)"/>
  
  <!-- Title -->
  <text x="400" y="45" text-anchor="middle" fill="white" font-family="system-ui, -apple-system, sans-serif" font-size="24" font-weight="600">
    AI Security Explainer
  </text>
  <text x="400" y="70" text-anchor="middle" fill="rgba(255,255,255,0.6)" font-family="system-ui, sans-serif" font-size="14">
    Understand security issues with AI-powered explanations
  </text>
  
  <!-- Code editor mockup -->
  <rect x="50" y="100" width="360" height="200" rx="8" fill="#1e1e2e" stroke="rgba(255,255,255,0.1)" stroke-width="1"/>
  
  <!-- Editor header -->
  <rect x="50" y="100" width="360" height="30" rx="8" fill="#2d2d3f"/>
  <rect x="50" y="122" width="360" height="8" fill="#2d2d3f"/>
  <circle cx="68" cy="115" r="5" fill="#ff5f57"/>
  <circle cx="88" cy="115" r="5" fill="#ffbd2e"/>
  <circle cx="108" cy="115" r="5" fill="#28ca42"/>
  <text x="230" y="119" text-anchor="middle" fill="rgba(255,255,255,0.5)" font-family="monospace" font-size="11">payment.service.ts</text>
  
  <!-- Code with selection highlight -->
  <g font-family="'SF Mono', 'Fira Code', monospace" font-size="11">
    <text x="62" y="155" fill="rgba(255,255,255,0.3)">42</text>
    <text x="82" y="155" fill="#c678dd">async</text>
    <text x="118" y="155" fill="#61afef">processPayment</text>
    <text x="210" y="155" fill="white">(</text>
    <text x="217" y="155" fill="#e5c07b">data</text>
    <text x="242" y="155" fill="white">) {</text>
    
    <!-- Selected/highlighted code block -->
    <rect x="75" y="162" width="330" height="60" fill="rgba(139,92,246,0.2)" rx="3" stroke="#8b5cf6" stroke-width="1" stroke-dasharray="4,2"/>
    
    <text x="62" y="175" fill="rgba(255,255,255,0.3)">43</text>
    <text x="90" y="175" fill="#c678dd">const</text>
    <text x="128" y="175" fill="#e5c07b">card</text>
    <text x="155" y="175" fill="white">=</text>
    <text x="165" y="175" fill="#e5c07b">data</text>
    <text x="190" y="175" fill="white">.</text>
    <text x="197" y="175" fill="#e06c75">creditCard</text>
    <text x="262" y="175" fill="white">;</text>
    
    <text x="62" y="195" fill="rgba(255,255,255,0.3)">44</text>
    <text x="90" y="195" fill="#61afef">console</text>
    <text x="140" y="195" fill="white">.</text>
    <text x="147" y="195" fill="#61afef">log</text>
    <text x="168" y="195" fill="white">(</text>
    <text x="175" y="195" fill="#98c379">'Processing:'</text>
    <text x="262" y="195" fill="white">,</text>
    <text x="272" y="195" fill="#e5c07b">card</text>
    <text x="297" y="195" fill="white">);</text>
    
    <text x="62" y="215" fill="rgba(255,255,255,0.3)">45</text>
    <text x="90" y="215" fill="#c678dd">return</text>
    <text x="135" y="215" fill="#61afef">stripe</text>
    <text x="173" y="215" fill="white">.</text>
    <text x="180" y="215" fill="#61afef">charge</text>
    <text x="220" y="215" fill="white">(</text>
    <text x="227" y="215" fill="#e5c07b">card</text>
    <text x="252" y="215" fill="white">);</text>
    
    <text x="62" y="235" fill="rgba(255,255,255,0.3)">46</text>
    <text x="82" y="235" fill="white">}</text>
    
    <text x="62" y="255" fill="rgba(255,255,255,0.3)">47</text>
    
    <text x="62" y="275" fill="rgba(255,255,255,0.3)">48</text>
    <text x="82" y="275" fill="#c678dd">async</text>
    <text x="118" y="275" fill="#61afef">refund</text>
    <text x="160" y="275" fill="white">(</text>
    <text x="167" y="275" fill="#e5c07b">txId</text>
    <text x="193" y="275" fill="white">) {</text>
  </g>
  
  <!-- Context menu -->
  <g transform="translate(280, 180)">
    <rect x="0" y="0" width="180" height="100" rx="6" fill="#2d2d3f" stroke="rgba(255,255,255,0.15)"/>
    <rect x="5" y="5" width="170" height="24" rx="3" fill="rgba(139,92,246,0.3)"/>
    <text x="15" y="21" fill="white" font-family="system-ui, sans-serif" font-size="12">✨ Explain with AI</text>
    <rect x="5" y="34" width="170" height="24" rx="3" fill="transparent"/>
    <text x="15" y="50" fill="rgba(255,255,255,0.7)" font-family="system-ui, sans-serif" font-size="12">🔍 Analyze Security Risk</text>
    <rect x="5" y="63" width="170" height="24" rx="3" fill="transparent"/>
    <text x="15" y="79" fill="rgba(255,255,255,0.7)" font-family="system-ui, sans-serif" font-size="12">🔧 Apply Fix</text>
  </g>
  
  <!-- AI Explanation panel -->
  <g transform="translate(440, 100)">
    <rect x="0" y="0" width="320" height="370" rx="8" fill="rgba(139,92,246,0.1)" stroke="url(#aiGrad)" stroke-width="1"/>
    
    <!-- Panel header with AI icon -->
    <rect x="0" y="0" width="320" height="40" rx="8" fill="rgba(139,92,246,0.2)"/>
    <rect x="0" y="32" width="320" height="8" fill="rgba(139,92,246,0.2)"/>
    
    <g transform="translate(15, 12)">
      <circle cx="8" cy="8" r="8" fill="url(#aiGrad)" filter="url(#aiGlow)"/>
      <text x="8" y="12" text-anchor="middle" fill="white" font-family="system-ui, sans-serif" font-size="10">✦</text>
    </g>
    <text x="38" y="26" fill="white" font-family="system-ui, sans-serif" font-size="13" font-weight="600">VibeCheck AI</text>
    <text x="280" y="26" fill="rgba(255,255,255,0.4)" font-family="system-ui, sans-serif" font-size="10">Powered by Claude</text>
    
    <!-- Explanation content -->
    <g transform="translate(15, 55)">
      <!-- Issue badge -->
      <rect x="0" y="0" width="120" height="22" rx="11" fill="rgba(239,68,68,0.2)" stroke="#ef4444" stroke-width="1"/>
      <text x="60" y="15" text-anchor="middle" fill="#fca5a5" font-family="system-ui, sans-serif" font-size="11" font-weight="500">🔴 PII Exposure</text>
      
      <!-- Main explanation -->
      <text x="0" y="50" fill="white" font-family="system-ui, sans-serif" font-size="12" font-weight="600">What's happening:</text>
      <text x="0" y="70" fill="rgba(255,255,255,0.8)" font-family="system-ui, sans-serif" font-size="11">Credit card data is being logged to the</text>
      <text x="0" y="85" fill="rgba(255,255,255,0.8)" font-family="system-ui, sans-serif" font-size="11">console, which may persist in log files,</text>
      <text x="0" y="100" fill="rgba(255,255,255,0.8)" font-family="system-ui, sans-serif" font-size="11">monitoring systems, or error trackers.</text>
      
      <!-- Why it matters -->
      <text x="0" y="130" fill="white" font-family="system-ui, sans-serif" font-size="12" font-weight="600">Why it matters:</text>
      <text x="0" y="150" fill="rgba(255,255,255,0.8)" font-family="system-ui, sans-serif" font-size="11">• PCI-DSS compliance violation</text>
      <text x="0" y="167" fill="rgba(255,255,255,0.8)" font-family="system-ui, sans-serif" font-size="11">• Card data exposure in breach</text>
      <text x="0" y="184" fill="rgba(255,255,255,0.8)" font-family="system-ui, sans-serif" font-size="11">• Potential $500K+ fines</text>
      
      <!-- Fix suggestion -->
      <text x="0" y="214" fill="white" font-family="system-ui, sans-serif" font-size="12" font-weight="600">Recommended fix:</text>
      
      <rect x="0" y="225" width="290" height="50" rx="4" fill="#1e1e2e"/>
      <text x="10" y="245" fill="#5c6370" font-family="monospace" font-size="10">// Log only masked data</text>
      <text x="10" y="262" fill="#61afef" font-family="monospace" font-size="10">console.log('Processing: ****' + card.slice(-4))</text>
      
      <!-- Action buttons -->
      <g transform="translate(0, 290)">
        <rect x="0" y="0" width="90" height="30" rx="6" fill="url(#aiGrad)"/>
        <text x="45" y="20" text-anchor="middle" fill="white" font-family="system-ui, sans-serif" font-size="11" font-weight="500">Apply Fix</text>
        
        <rect x="100" y="0" width="90" height="30" rx="6" fill="transparent" stroke="rgba(255,255,255,0.2)"/>
        <text x="145" y="20" text-anchor="middle" fill="rgba(255,255,255,0.7)" font-family="system-ui, sans-serif" font-size="11">Ignore</text>
        
        <rect x="200" y="0" width="90" height="30" rx="6" fill="transparent" stroke="rgba(255,255,255,0.2)"/>
        <text x="245" y="20" text-anchor="middle" fill="rgba(255,255,255,0.7)" font-family="system-ui, sans-serif" font-size="11">Learn More</text>
      </g>
    </g>
  </g>
  
  <!-- Keyboard shortcut hint -->
  <g transform="translate(50, 320)">
    <rect x="0" y="0" width="360" height="150" rx="8" fill="rgba(255,255,255,0.03)" stroke="rgba(255,255,255,0.08)"/>
    
    <text x="180" y="25" text-anchor="middle" fill="rgba(255,255,255,0.5)" font-family="system-ui, sans-serif" font-size="11">HOW TO USE</text>
    
    <g transform="translate(20, 45)">
      <text x="0" y="15" fill="rgba(255,255,255,0.4)" font-family="system-ui, sans-serif" font-size="10">1</text>
      <text x="15" y="15" fill="rgba(255,255,255,0.8)" font-family="system-ui, sans-serif" font-size="11">Select suspicious code</text>
    </g>
    
    <g transform="translate(20, 70)">
      <text x="0" y="15" fill="rgba(255,255,255,0.4)" font-family="system-ui, sans-serif" font-size="10">2</text>
      <text x="15" y="15" fill="rgba(255,255,255,0.8)" font-family="system-ui, sans-serif" font-size="11">Right-click → "Explain with AI"</text>
    </g>
    
    <g transform="translate(20, 95)">
      <text x="0" y="15" fill="rgba(255,255,255,0.4)" font-family="system-ui, sans-serif" font-size="10">3</text>
      <text x="15" y="15" fill="rgba(255,255,255,0.8)" font-family="system-ui, sans-serif" font-size="11">Or press</text>
      <rect x="63" y="2" width="60" height="18" rx="3" fill="rgba(255,255,255,0.1)" stroke="rgba(255,255,255,0.2)"/>
      <text x="93" y="15" text-anchor="middle" fill="rgba(255,255,255,0.9)" font-family="monospace" font-size="10">⌘⇧E</text>
    </g>
    
    <g transform="translate(20, 120)">
      <text x="0" y="15" fill="rgba(255,255,255,0.4)" font-family="system-ui, sans-serif" font-size="10">4</text>
      <text x="15" y="15" fill="rgba(255,255,255,0.8)" font-family="system-ui, sans-serif" font-size="11">Review explanation and apply recommended fix</text>
    </g>
  </g>
  
  <!-- AI sparkle decorations -->
  <g fill="#8b5cf6" opacity="0.3">
    <circle cx="100" cy="85" r="2">
      <animate attributeName="opacity" values="0.3;0.8;0.3" dur="2s" repeatCount="indefinite"/>
    </circle>
    <circle cx="700" cy="90" r="2">
      <animate attributeName="opacity" values="0.3;0.8;0.3" dur="2.5s" repeatCount="indefinite"/>
    </circle>
    <circle cx="750" cy="450" r="2">
      <animate attributeName="opacity" values="0.3;0.8;0.3" dur="1.8s" repeatCount="indefinite"/>
    </circle>
  </g>
</svg>
