<svg width="600" height="400" viewBox="0 0 600 400" fill="none" xmlns="http://www.w3.org/2000/svg">
  <defs>
    <linearGradient id="rmBg" x1="0%" y1="0%" x2="100%" y2="100%">
      <stop offset="0%" style="stop-color:#1a1a2e"/>
      <stop offset="100%" style="stop-color:#16213e"/>
    </linearGradient>
    <linearGradient id="rmPrimary" x1="0%" y1="0%" x2="100%" y2="100%">
      <stop offset="0%" style="stop-color:#6366f1"/>
      <stop offset="100%" style="stop-color:#8b5cf6"/>
    </linearGradient>
    <filter id="rmGlow">
      <feGaussianBlur stdDeviation="3"/>
    </filter>
  </defs>
  
  <!-- Background -->
  <rect width="600" height="400" fill="url(#rmBg)"/>
  
  <!-- Grid -->
  <g opacity="0.05" stroke="white" stroke-width="0.5">
    <line x1="0" y1="100" x2="600" y2="100"/>
    <line x1="0" y1="200" x2="600" y2="200"/>
    <line x1="0" y1="300" x2="600" y2="300"/>
    <line x1="150" y1="0" x2="150" y2="400"/>
    <line x1="300" y1="0" x2="300" y2="400"/>
    <line x1="450" y1="0" x2="450" y2="400"/>
  </g>
  
  <!-- Glow -->
  <ellipse cx="300" cy="200" rx="200" ry="150" fill="#6366f1" opacity="0.08" filter="url(#rmGlow)"/>
  
  <!-- Browser mockup -->
  <g transform="translate(100, 80)">
    <rect width="400" height="260" rx="8" fill="#1e1e2e" stroke="#2a2a3e" stroke-width="2"/>
    
    <!-- Browser chrome -->
    <rect width="400" height="32" rx="8" fill="#252536"/>
    <rect y="24" width="400" height="8" fill="#252536"/>
    
    <!-- Traffic lights -->
    <circle cx="16" cy="16" r="5" fill="#ff5f57"/>
    <circle cx="34" cy="16" r="5" fill="#febc2e"/>
    <circle cx="52" cy="16" r="5" fill="#28c840"/>
    
    <!-- URL bar -->
    <rect x="70" y="8" width="260" height="16" rx="4" fill="#1a1a2e"/>
    <text x="80" y="20" fill="#6366f1" font-family="monospace" font-size="10">localhost:3000/dashboard</text>
    
    <!-- Page content -->
    <rect x="16" y="48" width="368" height="196" rx="4" fill="#0f0f1a"/>
    
    <!-- Dashboard mockup -->
    <rect x="24" y="56" width="100" height="12" rx="2" fill="#3a3a4a"/>
    <rect x="24" y="76" width="160" height="60" rx="4" fill="#252536"/>
    <rect x="192" y="76" width="160" height="60" rx="4" fill="#252536"/>
    <rect x="24" y="144" width="328" height="90" rx="4" fill="#252536"/>
    
    <!-- Checkmarks for validated elements -->
    <g fill="#22c55e">
      <circle cx="140" cy="106" r="10"/>
      <path d="M136 106L139 109L145 103" stroke="white" stroke-width="2" fill="none"/>
      
      <circle cx="308" cy="106" r="10"/>
      <path d="M304 106L307 109L313 103" stroke="white" stroke-width="2" fill="none"/>
      
      <circle cx="188" cy="189" r="10"/>
      <path d="M184 189L187 192L193 186" stroke="white" stroke-width="2" fill="none"/>
    </g>
  </g>
  
  <!-- Reality Mode badge -->
  <g transform="translate(300, 360)">
    <rect x="-100" y="-20" width="200" height="40" rx="20" fill="url(#rmPrimary)"/>
    <text x="0" y="6" text-anchor="middle" fill="white" font-family="system-ui" font-size="14" font-weight="600">
      🎭 Reality Mode Active
    </text>
  </g>
  
  <!-- Floating test results -->
  <g transform="translate(30, 300)">
    <rect width="140" height="50" rx="6" fill="#1e1e2e" stroke="#22c55e" stroke-width="1"/>
    <text x="12" y="20" fill="#22c55e" font-family="monospace" font-size="11">✓ Login works</text>
    <text x="12" y="36" fill="#22c55e" font-family="monospace" font-size="11">✓ Data saves</text>
  </g>
  
  <g transform="translate(430, 50)">
    <rect width="150" height="70" rx="6" fill="#1e1e2e" stroke="#2a2a3e" stroke-width="1"/>
    <text x="12" y="20" fill="#a1a1aa" font-family="monospace" font-size="10">Tests: 12</text>
    <text x="12" y="36" fill="#22c55e" font-family="monospace" font-size="10">Passed: 11</text>
    <text x="12" y="52" fill="#ef4444" font-family="monospace" font-size="10">Failed: 1</text>
  </g>
</svg>
